<?xml version="1.0" standalone="no"?>
<!DOCTYPE svg PUBLIC "-//W3C//DTD SVG 20010904//EN"
 "http://www.w3.org/TR/2001/REC-SVG-20010904/DTD/svg10.dtd">
<svg version="1.0" xmlns="http://www.w3.org/2000/svg"
 width="900.000000pt" height="861.000000pt" viewBox="0 0 900.000000 861.000000"
 preserveAspectRatio="xMidYMid meet">

<g transform="translate(0.000000,861.000000) scale(0.100000,-0.100000)"
fill="#000000" stroke="none">
<path d="M4280 8189 c-502 -41 -1008 -244 -1410 -565 -109 -87 -307 -285 -394
-394 -228 -286 -404 -637 -492 -985 -175 -688 -62 -1415 315 -2020 27 -44 533
-920 1123 -1947 590 -1027 1075 -1868 1078 -1868 3 0 480 827 1060 1837 580
1011 1090 1896 1133 1968 130 215 200 363 268 562 161 475 179 978 54 1473
-86 341 -264 696 -491 980 -87 109 -285 307 -394 394 -523 418 -1183 619
-1850 565z m335 -1623 c313 -24 629 -254 771 -560 66 -144 79 -211 79 -406 0
-153 -3 -185 -23 -254 -80 -276 -266 -500 -517 -621 -156 -76 -222 -90 -425
-90 -153 0 -185 3 -255 23 -395 113 -682 456 -713 852 -15 179 13 346 82 496
146 314 456 535 795 563 47 4 97 6 111 5 14 -2 57 -5 95 -8z"/>
</g>
</svg>
